<svg width="130" height="104" viewBox="0 0 130 104" fill="none" xmlns="http://www.w3.org/2000/svg">
<path d="M16.2085 33.6359C13.8673 33.6359 11.754 33.171 9.86897 32.2412C7.98381 31.3114 6.35715 30.0561 4.98887 28.4754C3.62062 26.8637 2.55643 25.066 1.7963 23.0824C1.06657 21.0678 0.701704 19.0067 0.701704 16.8991C0.701704 14.6985 1.09697 12.6064 1.88752 10.6228C2.67805 8.60811 3.77264 6.82598 5.17133 5.27627C6.56995 3.69556 8.21185 2.4558 10.097 1.55697C12.0126 0.627144 14.0801 0.162231 16.2997 0.162231C18.6105 0.162231 20.7085 0.642644 22.5936 1.60346C24.5092 2.56428 26.1358 3.85053 27.4737 5.46223C28.8419 7.07392 29.8909 8.87162 30.6207 10.8552C31.3808 12.8388 31.7609 14.869 31.7609 16.9456C31.7609 19.1462 31.3655 21.2537 30.5751 23.2684C29.8149 25.252 28.7355 27.0342 27.3369 28.6149C25.9382 30.1646 24.2811 31.3888 22.3656 32.2877C20.4804 33.1865 18.4281 33.6359 16.2085 33.6359ZM5.90106 16.8991C5.90106 18.4488 6.14425 19.952 6.6308 21.4087C7.11725 22.8655 7.80137 24.1672 8.68316 25.314C9.59532 26.4298 10.6899 27.3131 11.9669 27.964C13.244 28.6149 14.673 28.9403 16.2541 28.9403C17.896 28.9403 19.3555 28.5993 20.6325 27.9175C21.9095 27.2357 22.9736 26.3213 23.8251 25.1745C24.7067 23.9967 25.3757 22.6949 25.8318 21.2692C26.2879 19.8125 26.5159 18.3558 26.5159 16.8991C26.5159 15.3493 26.2727 13.8616 25.7862 12.4359C25.3301 10.9792 24.646 9.69293 23.7338 8.57714C22.8217 7.43035 21.7271 6.53153 20.4501 5.88065C19.2034 5.22978 17.8048 4.90434 16.2541 4.90434C14.6122 4.90434 13.1528 5.24528 11.8757 5.92714C10.5987 6.60901 9.51925 7.52334 8.63755 8.67013C7.75576 9.81688 7.07164 11.1032 6.58519 12.5289C6.12911 13.9546 5.90106 15.4114 5.90106 16.8991ZM78.2333 0.394688V33.4035H73.0796V18.8517H56.7519V33.4035H51.6438V0.394688H56.7519V14.2026H73.0796V0.394688H78.2333ZM113.587 33.6359C111.246 33.6359 109.133 33.171 107.247 32.2412C105.363 31.3114 103.735 30.0561 102.367 28.4754C100.999 26.8637 99.9354 25.066 99.1747 23.0824C98.4449 21.0678 98.0801 19.0067 98.0801 16.8991C98.0801 14.6985 98.4759 12.6064 99.2659 10.6228C100.057 8.60811 101.151 6.82598 102.55 5.27627C103.949 3.69556 105.591 2.4558 107.475 1.55697C109.391 0.627144 111.459 0.162231 113.678 0.162231C115.989 0.162231 118.087 0.642644 119.972 1.60346C121.888 2.56428 123.515 3.85053 124.852 5.46223C126.22 7.07392 127.269 8.87162 127.999 10.8552C128.76 12.8388 129.139 14.869 129.139 16.9456C129.139 19.1462 128.744 21.2537 127.953 23.2684C127.194 25.252 126.114 27.0342 124.715 28.6149C123.317 30.1646 121.659 31.3888 119.744 32.2877C117.859 33.1865 115.807 33.6359 113.587 33.6359ZM103.279 16.8991C103.279 18.4488 103.523 19.952 104.009 21.4087C104.496 22.8655 105.18 24.1672 106.061 25.314C106.974 26.4298 108.068 27.3131 109.345 27.964C110.622 28.6149 112.052 28.9403 113.632 28.9403C115.274 28.9403 116.734 28.5993 118.011 27.9175C119.288 27.2357 120.352 26.3213 121.203 25.1745C122.085 23.9967 122.754 22.6949 123.21 21.2692C123.666 19.8125 123.894 18.3558 123.894 16.8991C123.894 15.3493 123.652 13.8616 123.165 12.4359C122.708 10.9792 122.024 9.69293 121.112 8.57714C120.2 7.43035 119.105 6.53153 117.828 5.88065C116.582 5.22978 115.183 4.90434 113.632 4.90434C111.991 4.90434 110.531 5.24528 109.254 5.92714C107.977 6.60901 106.898 7.52334 106.016 8.67013C105.135 9.81688 104.451 11.1032 103.964 12.5289C103.507 13.9546 103.279 15.4114 103.279 16.8991ZM26.7535 37.5412H15.99V65.9473H10.8363V37.5412H0.0272331V32.9385H26.7535V37.5412ZM58.324 61.3447V65.9473H36.1129V32.9385H57.9136V37.5412H41.221V46.9324H55.6788V51.2561H41.221V61.3447H58.324ZM68.656 65.9473V32.9385H91.4149V37.4947H73.7641V46.7464H83.2506C86.8385 46.7464 89.5295 47.6142 91.3237 49.3499C93.117 51.0546 94.0146 53.3172 94.0146 56.1377C94.0146 58.0283 93.6187 59.7175 92.8288 61.2052C92.068 62.662 90.9132 63.8242 89.3625 64.6921C87.842 65.5289 85.9111 65.9473 83.5699 65.9473H68.656ZM73.7641 61.3912H82.8857C84.2844 61.3912 85.4094 61.1278 86.2607 60.6008C87.1425 60.0739 87.7663 59.4076 88.1311 58.6017C88.5261 57.7649 88.724 56.8971 88.724 55.9982C88.724 55.0993 88.5562 54.2625 88.2223 53.4877C87.8876 52.7128 87.2792 52.0929 86.3976 51.628C85.5462 51.1321 84.3452 50.8842 82.7945 50.8842H73.7641V61.3912ZM126.036 61.3447V65.9473H103.825V32.9385H125.626V37.5412H108.933V46.9324H123.391V51.2561H108.933V61.3447H126.036ZM26.6399 65.4824V98.4912H21.4862V83.9394H5.15847V98.4912H0.0503931V65.4824H5.15847V79.2903H21.4862V65.4824H26.6399ZM44.2065 65.4824H49.041L61.6288 98.4912H56.247L52.8264 89.5184H40.3298L36.9548 98.4912H31.5274L44.2065 65.4824ZM51.8231 85.6596L46.6237 71.2008L41.242 85.6596H51.8231ZM61.4375 104.814V93.8885H62.9882C63.8395 93.8885 64.5692 93.5473 65.1774 92.8657C65.8159 92.1842 66.348 91.0991 66.7737 89.6114C67.2297 88.1236 67.5794 86.171 67.8227 83.7535C68.0963 81.305 68.2939 78.314 68.4156 74.7806L68.6436 65.4824H89.4866V93.8885H93.5913V104.814H89.0761V98.4912H65.9527V104.814H61.4375ZM69.4645 93.8885H84.3328V70.085H73.3868L73.25 75.478C73.1588 79.0423 72.9764 82.0642 72.7027 84.5438C72.4291 86.9923 72.0337 88.976 71.5169 90.4947C71 92.0131 70.3159 93.1447 69.4645 93.8885ZM113.406 98.7236C111.065 98.7236 108.952 98.2587 107.067 97.3289C105.181 96.3991 103.555 95.1438 102.187 93.5631C100.818 91.9514 99.7539 90.1537 98.9941 88.1701C98.2643 86.1555 97.8995 84.0944 97.8995 81.9868C97.8995 79.7862 98.2944 77.6941 99.0853 75.7105C99.8761 73.6958 100.971 71.9137 102.369 70.364C103.767 68.7833 105.409 67.5435 107.295 66.6447C109.21 65.7149 111.278 65.2499 113.497 65.2499C115.808 65.2499 117.906 65.7304 119.791 66.6912C121.707 67.652 123.333 68.9383 124.671 70.5499C126.04 72.1616 127.089 73.9593 127.818 75.9429C128.578 77.9265 128.959 79.9567 128.959 82.0333C128.959 84.2339 128.564 86.3414 127.773 88.3561C127.013 90.3397 125.933 92.1219 124.535 93.7026C123.136 95.2526 121.479 96.4762 119.563 97.3754C117.678 98.2745 115.626 98.7236 113.406 98.7236ZM103.099 81.9868C103.099 83.5365 103.342 85.0397 103.829 86.4964C104.315 87.9532 104.999 89.255 105.881 90.4017C106.793 91.5175 107.888 92.4008 109.165 93.0517C110.442 93.7026 111.871 94.028 113.452 94.028C115.094 94.028 116.553 93.6868 117.83 93.0052C119.107 92.3236 120.172 91.409 121.023 90.2622C121.905 89.0844 122.573 87.7827 123.03 86.357C123.486 84.9002 123.714 83.4435 123.714 81.9868C123.714 80.437 123.47 78.9493 122.984 77.5236C122.528 76.0669 121.844 74.7807 120.932 73.6649C120.019 72.5181 118.925 71.6192 117.648 70.9684C116.401 70.3175 115.002 69.9921 113.452 69.9921C111.81 69.9921 110.35 70.333 109.073 71.0149C107.796 71.6967 106.717 72.6111 105.835 73.7578C104.953 74.9046 104.269 76.1909 103.783 77.6166C103.327 79.0423 103.099 80.4991 103.099 81.9868Z" fill="black"/>
</svg>
